<?xml version="1.0" encoding="iso-8859-1"?>
<!-- Generator: Adobe Illustrator 19.0.0, SVG Export Plug-In . SVG Version: 6.00 Build 0)  -->
<svg version="1.1" id="Layer_1" xmlns="http://www.w3.org/2000/svg" xmlns:xlink="http://www.w3.org/1999/xlink" x="0px" y="0px"
	 viewBox="0 0 512.001 512.001" style="enable-background:new 0 0 512.001 512.001;" xml:space="preserve">
<g>
	<g>
		<path d="M468.149,112.682c-2.579-3.808-7.755-4.807-11.566-2.229c-3.809,2.579-4.807,7.756-2.229,11.566
			c26.815,39.617,40.988,85.948,40.988,133.982c0,63.931-24.896,124.035-70.102,169.24C380.036,470.446,319.932,495.342,256,495.342
			c-50.996,0-99.68-15.833-140.787-45.788c-3.717-2.709-8.929-1.892-11.637,1.827c-2.709,3.718-1.891,8.927,1.827,11.637
			c43.977,32.044,96.052,48.983,150.597,48.983c68.381,0,132.668-26.629,181.02-74.98c48.351-48.352,74.98-112.639,74.98-181.019
			C512.001,204.627,496.837,155.067,468.149,112.682z"/>
	</g>
</g>
<g>
	<g>
		<path d="M446.798,85.338C398.256,31.105,328.713,0,256,0C187.62,0,123.334,26.629,74.982,74.98
			C26.63,123.333,0.001,187.62,0.001,255.999c0,35.521,7.142,69.91,21.224,102.212c13.602,31.195,33.013,59.002,57.691,82.65
			c1.614,1.547,3.688,2.314,5.761,2.314c2.191,0,4.379-0.86,6.015-2.566c3.183-3.32,3.071-8.593-0.252-11.776
			c-23.079-22.114-41.228-48.115-53.945-77.279c-13.162-30.189-19.836-62.337-19.836-95.554c0-63.931,24.896-124.035,70.102-169.24
			C131.966,41.554,192.07,16.658,256,16.658c67.981,0,133,29.082,178.386,79.79c3.068,3.427,8.331,3.72,11.762,0.651
			C449.575,94.03,449.867,88.765,446.798,85.338z"/>
	</g>
</g>
<g>
	<g>
		<path d="M396.791,248.804l-169.579-98.798c-2.576-1.501-5.76-1.51-8.343-0.024c-2.584,1.486-4.179,4.24-4.179,7.221v49.008H125.2
			c-4.601,0-8.329,3.729-8.329,8.329v82.923c0,4.6,3.728,8.329,8.329,8.329h89.49v49.008c0,2.982,1.595,5.736,4.179,7.222
			c2.565,1.474,5.788,1.465,8.343-0.024l169.579-98.799c2.562-1.493,4.137-4.233,4.137-7.196S399.353,250.296,396.791,248.804z
			 M231.347,340.307v-42.845c0-4.6-3.728-8.329-8.329-8.329h-89.49v-66.265h89.49c4.601,0,8.329-3.729,8.329-8.329v-42.845
			l144.706,84.307L231.347,340.307z"/>
	</g>
</g>
<g>
</g>
<g>
</g>
<g>
</g>
<g>
</g>
<g>
</g>
<g>
</g>
<g>
</g>
<g>
</g>
<g>
</g>
<g>
</g>
<g>
</g>
<g>
</g>
<g>
</g>
<g>
</g>
<g>
</g>
</svg>
